<svg width="18" height="18" viewBox="0 0 18 18" fill="none" xmlns="http://www.w3.org/2000/svg">
<path d="M17.832 16.9515C17.6908 17.1702 17.4753 17.3191 17.2329 17.3655C16.9905 17.4118 16.7411 17.3518 16.5395 17.1987L11.4765 13.3771C11.2749 13.2239 11.1377 12.9902 11.0949 12.7272C11.0522 12.4643 11.1075 12.1937 11.2486 11.975C11.3898 11.7562 11.6053 11.6073 11.8477 11.561C12.0901 11.5146 12.3395 11.5746 12.5411 11.7277L17.6041 15.5494C17.8057 15.7025 17.9429 15.9363 17.9857 16.1992C18.0284 16.4622 17.9731 16.7327 17.832 16.9515Z" fill="white"/>
<path d="M11.9846 11.7107C11.2372 12.8685 10.1902 13.76 8.97579 14.2723C7.76141 14.7846 6.43425 14.8948 5.16215 14.5889C3.89006 14.2829 2.73015 13.5747 1.82911 12.5536C0.928073 11.5326 0.32638 10.2446 0.100106 8.85264C-0.126169 7.46063 0.033134 6.02709 0.557892 4.73331C1.08265 3.43952 1.94928 2.3436 3.0482 1.58413C4.14711 0.824647 5.42896 0.435724 6.73163 0.466543C8.0343 0.497362 9.29929 0.946538 10.3666 1.75727C11.7963 2.8458 12.7695 4.50506 13.0728 6.37103C13.3761 8.23701 12.9848 10.1573 11.9846 11.7107ZM2.54053 4.53721C1.98003 5.40561 1.66949 6.43482 1.64819 7.49467C1.62688 8.55453 1.89577 9.59744 2.42084 10.4915C2.94592 11.3856 3.7036 12.0907 4.59808 12.5176C5.49255 12.9446 6.48365 13.0742 7.44603 12.8901C8.40842 12.706 9.29886 12.2165 10.0048 11.4834C10.7107 10.7503 11.2004 9.80658 11.4119 8.77159C11.6234 7.73661 11.5472 6.65683 11.193 5.66881C10.8388 4.68078 10.2225 3.82888 9.42197 3.22084C8.34805 2.40707 7.02042 2.08864 5.73034 2.33542C4.44027 2.58221 3.2931 3.37404 2.54053 4.53721V4.53721Z" fill="white"/>
</svg>
