<svg width="23" height="23" viewBox="0 0 23 23" fill="none" xmlns="http://www.w3.org/2000/svg">
<path d="M11.8653 0.912628C10.1004 0.912628 8.67078 2.3424 8.67078 4.10711C8.67078 6.83639 14.6033 10.9523 14.6033 10.9523C14.6033 10.9523 20.5359 6.815 20.5359 4.10711C20.5359 2.3424 19.1061 0.912628 17.3414 0.912628C16.1774 0.912628 15.1613 1.53668 14.6033 2.4671C14.0454 1.53668 13.0293 0.912628 11.8653 0.912628ZM21.0065 12.3357C20.6766 12.3571 20.3559 12.5014 20.1081 12.7492L15.516 17.3413H10.9524L10.0398 16.4286L13.548 15.7298C14.0596 15.6281 14.4803 15.2449 14.5748 14.7315C14.721 13.9348 14.1184 13.2342 13.3484 13.2342H6.988C6.02003 13.2342 5.09122 13.6192 4.40679 14.3037L0.456543 18.2539L4.56366 22.361L6.11814 20.8067C6.2892 20.6355 6.5174 20.5358 6.7598 20.5358H15.2166C15.7014 20.5358 16.1578 20.3361 16.4999 19.9938L21.9763 14.5177C22.4967 13.9971 22.4878 13.1486 21.9333 12.6495C21.6731 12.4159 21.3362 12.3143 21.0065 12.3357Z" fill="#CB1545"/>
</svg>
