<svg width="27" height="27" viewBox="0 0 27 27" fill="none" xmlns="http://www.w3.org/2000/svg">
<path d="M12.6562 3.375V7.59375H14.3438V5.2207C18.5955 5.65906 21.9375 9.12964 21.9375 13.5C21.9375 18.1703 18.1703 21.9375 13.5 21.9375C8.82971 21.9375 5.0625 18.1703 5.0625 13.5C5.0625 10.7875 6.32483 8.37488 8.30566 6.8291L7.27734 5.51074C4.901 7.36304 3.375 10.2568 3.375 13.5C3.375 19.0833 7.91675 23.625 13.5 23.625C19.0833 23.625 23.625 19.0833 23.625 13.5C23.625 7.91675 19.0833 3.375 13.5 3.375H12.6562ZM9.04395 7.83105L7.83105 9.04395L12.8936 14.1064C13.0452 14.2581 13.266 14.3438 13.5 14.3438C13.9647 14.3438 14.3438 13.9647 14.3438 13.5C14.3438 13.266 14.2581 13.0452 14.1064 12.8936L9.04395 7.83105Z" fill="#CB1545"/>
</svg>
